<?xml version="1.0" encoding="UTF-8"?> <svg xmlns="http://www.w3.org/2000/svg" xmlns:xlink="http://www.w3.org/1999/xlink" fill="none" height="637" viewBox="0 0 1920 637" width="1920"><filter id="a" color-interpolation-filters="sRGB" filterUnits="userSpaceOnUse" height="723" width="2038" x="-59" y="-52"><feFlood flood-opacity="0" result="BackgroundImageFix"></feFlood><feBlend in="SourceGraphic" in2="BackgroundImageFix" mode="normal" result="shape"></feBlend><feGaussianBlur result="effect1_foregroundBlur_8861_9675" stdDeviation="26"></feGaussianBlur></filter><filter id="b" color-interpolation-filters="sRGB" filterUnits="userSpaceOnUse" height="723" width="1352" x="284" y="-52"><feFlood flood-opacity="0" result="BackgroundImageFix"></feFlood><feBlend in="SourceGraphic" in2="BackgroundImageFix" mode="normal" result="shape"></feBlend><feGaussianBlur result="effect1_foregroundBlur_8861_9675" stdDeviation="26"></feGaussianBlur></filter><linearGradient id="c" gradientUnits="userSpaceOnUse" x1="960" x2="960" y1="0" y2="619"><stop offset="0" stop-color="#fff" stop-opacity="0"></stop><stop offset="1" stop-color="#fff" stop-opacity=".21"></stop></linearGradient><linearGradient id="d" gradientUnits="userSpaceOnUse" x1="960" x2="960" y1="128" y2="619"><stop offset="0" stop-color="#fff" stop-opacity=".18"></stop><stop offset="1" stop-color="#fff" stop-opacity=".21"></stop></linearGradient><radialGradient id="e" cx="0" cy="0" gradientTransform="matrix(0 546 -1013 0 949 691)" gradientUnits="userSpaceOnUse" r="1"><stop offset="0" stop-color="#e25d68"></stop><stop offset="1" stop-color="#e9d4ff" stop-opacity="0"></stop></radialGradient><clipPath id="f"><path d="m1087 560h10.6075v10.6075h-10.6075z"></path></clipPath><clipPath id="g"><path d="m794 560h10.6075v10.6075h-10.6075z"></path></clipPath><clipPath id="h"><path d="m1049 134h10.6075v10.6075h-10.6075z"></path></clipPath><clipPath id="i"><path d="m763 127h9v9h-9z"></path></clipPath><g opacity=".5"><g filter="url(#a)" opacity=".4"><path d="m-7 0h1934l-604.38 619h-788.782z" fill="url(#c)"></path></g><g filter="url(#b)" opacity=".6"><path d="m336 0h1248l-390 619h-509z" fill="url(#d)"></path></g><circle cx="1177.12" cy="548.122" fill="#fff" fill-opacity=".2" r="2.1215"></circle><circle cx="1237.12" cy="517.122" fill="#fff" fill-opacity=".2" r="2.1215"></circle><g clip-path="url(#f)" opacity=".4"><path d="m1092.59 560.211 1.08 3.53c.03.096.1.169.2.199l3.53 1.078c.28.086.28.486 0 .571l-3.53 1.079c-.1.03-.17.103-.2.198l-1.08 3.53c-.09.282-.49.282-.57 0l-1.08-3.53c-.03-.095-.1-.168-.2-.198l-3.53-1.079c-.28-.085-.28-.485 0-.571l3.53-1.078c.1-.03.17-.103.2-.199l1.08-3.53c.08-.281.48-.281.57 0z" fill="#fff"></path></g><circle cx="932.122" cy="560.122" fill="#fff" fill-opacity=".2" r="2.1215"></circle></g><ellipse cx="949" cy="691" fill="url(#e)" fill-opacity=".6" rx="1013" ry="546"></ellipse><g clip-path="url(#g)" opacity=".3"><path d="m799.589 560.211 1.078 3.53c.031.096.104.169.199.199l3.53 1.078c.282.086.282.486 0 .571l-3.53 1.079c-.095.03-.168.103-.199.198l-1.078 3.53c-.086.282-.485.282-.571 0l-1.078-3.53c-.031-.095-.104-.168-.199-.198l-3.53-1.079c-.282-.085-.282-.485 0-.571l3.53-1.078c.095-.03.168-.103.199-.199l1.078-3.53c.086-.281.485-.281.571 0z" fill="#fff"></path></g><g clip-path="url(#h)" opacity=".4"><path d="m1054.59 134.211 1.08 3.53c.03.096.1.169.2.199l3.53 1.078c.28.086.28.486 0 .571l-3.53 1.079c-.1.03-.17.103-.2.198l-1.08 3.53c-.09.282-.49.282-.57 0l-1.08-3.53c-.03-.095-.1-.168-.2-.198l-3.53-1.079c-.28-.085-.28-.485 0-.571l3.53-1.078c.1-.03.17-.103.2-.199l1.08-3.53c.08-.281.48-.281.57 0z" fill="#fff"></path></g><g clip-path="url(#i)" opacity=".3"><path d="m767.741 127.179.916 2.995c.025.081.087.143.168.169l2.995.915c.239.072.239.412 0 .484l-2.995.915c-.081.026-.143.088-.168.169l-.916 2.995c-.072.239-.411.239-.484 0l-.915-2.995c-.026-.081-.087-.143-.168-.169l-2.996-.915c-.238-.072-.238-.412 0-.484l2.996-.915c.081-.026.142-.088.168-.169l.915-2.995c.073-.239.412-.239.484 0z" fill="#fff"></path></g><g fill="#fff"><circle cx="858.591" cy="123.685" fill-opacity=".3" r="1.59112"></circle><circle cx="714.122" cy="541.122" fill-opacity=".4" r="2.1215"></circle><circle cx="878.122" cy="569.122" fill-opacity=".2" r="2.1215"></circle><circle cx="1045.12" cy="541.122" fill-opacity=".4" r="2.1215"></circle></g></svg> 